<?xml version="1.0" encoding="utf-8"?>
<!-- Generator: Adobe Illustrator 26.0.1, SVG Export Plug-In . SVG Version: 6.00 Build 0)  -->
<svg version="1.1" id="Layer_1" xmlns="http://www.w3.org/2000/svg" xmlns:xlink="http://www.w3.org/1999/xlink" x="0px" y="0px"
	 viewBox="0 0 88.1 88" style="enable-background:new 0 0 88.1 88;" xml:space="preserve">
<style type="text/css">
	.st0{fill:#FFFFFF;}
	.st1{fill:#231F20;}
	.st2{font-family:'Helvetica-Bold';}
	.st3{font-size:12.015px;}
	.st4{font-size:12px;}
	.st5{font-size:12.0383px;}
	.st6{font-size:11.9982px;}
	.st7{font-size:11.967px;}
	.st8{font-size:11.9567px;}
	.st9{font-size:12.0342px;}
	.st10{font-size:11.9772px;}
	.st11{fill:none;stroke:#231F20;stroke-miterlimit:10;}
	.st12{fill:none;stroke:#FFFFFF;stroke-width:4;stroke-miterlimit:10;}
	.st13{fill:none;stroke:#231F20;stroke-width:0.25;stroke-miterlimit:10;}
	.st14{fill:#231F20;stroke:#231F20;stroke-width:2;stroke-miterlimit:10;}
	.st15{fill:none;stroke:#231F20;stroke-width:2;stroke-miterlimit:10;}
</style>
<rect x="0.1" class="st0" width="88" height="88"/>
<g>
	<text transform="matrix(0.5593 0.829 -0.829 0.5593 8.1291 62.7397)" class="st1 st2 st3">C</text>
	<text transform="matrix(0.743 0.6693 -0.6693 0.743 13.6498 70.81)" class="st1 st2 st4">O</text>
	<text transform="matrix(0.8766 0.4813 -0.4813 0.8766 21.4901 77.5701)" class="st1 st2 st4">L</text>
	<text transform="matrix(0.9563 0.2925 -0.2925 0.9563 28.7701 81.4599)" class="st1 st2 st4">L</text>
	<text transform="matrix(0.9968 7.974522e-02 -7.974522e-02 0.9968 36.6802 83.8105)" class="st1 st2 st5">E</text>
	<text transform="matrix(0.9901 -0.14 0.14 0.9901 45.6897 84.4903)" class="st1 st2 st6">C</text>
	<text transform="matrix(0.9326 -0.361 0.361 0.9326 55.2299 82.9094)" class="st1 st2 st7">T</text>
	<text transform="matrix(0.8688 -0.4952 0.4952 0.8688 62.5799 79.85)" class="st1 st2 st4">I</text>
	<text transform="matrix(0.7806 -0.625 0.625 0.7806 66.14 77.9602)" class="st1 st2 st4">V</text>
	<text transform="matrix(0.6222 -0.7828 0.7828 0.6222 73.0807 72.2701)" class="st1 st2 st8">E</text>
	<text transform="matrix(0.1595 -0.9872 0.9872 0.1595 11.9205 44.5896)" class="st1 st2 st9">W</text>
	<text transform="matrix(0.4299 -0.9029 0.9029 0.4299 13.4601 34.5798)" class="st1 st2 st4">O</text>
	<text transform="matrix(0.64 -0.7684 0.7684 0.64 16.96 27.0398)" class="st1 st2 st4">R</text>
	<text transform="matrix(0.7915 -0.6112 0.6112 0.7915 21.8896 21.0794)" class="st1 st2 st10">L</text>
	<text transform="matrix(0.9077 -0.4196 0.4196 0.9077 26.8799 17.0199)" class="st1 st2 st4">D</text>
	<text transform="matrix(0.9105 0.4134 -0.4134 0.9105 53.5298 13.4499)" class="st1 st2 st4">P</text>
	<text transform="matrix(0.7828 0.6222 -0.6222 0.7828 60.7005 16.7002)" class="st1 st2 st8">E</text>
	<text transform="matrix(0.6 0.8 -0.8 0.6 66.8798 21.55)" class="st1 st2 st4">A</text>
	<text transform="matrix(0.3675 0.93 -0.93 0.3675 71.9703 28.2999)" class="st1 st2 st4">C</text>
	<text transform="matrix(0.1203 0.9927 -0.9927 0.1203 75.0702 36.1995)" class="st1 st2 st7">E</text>
	<circle class="st11" cx="44.1" cy="8" r="4.5"/>
	<line class="st11" x1="44.1" y1="12.5" x2="44.1" y2="3.5"/>
	<line class="st11" x1="47.5" y1="11.4" x2="44.1" y2="8"/>
	<line class="st11" x1="40.7" y1="11.4" x2="44.1" y2="8"/>
	<line class="st12" x1="44.1" y1="17" x2="44.1" y2="17"/>
	<line class="st13" x1="64.5" y1="61.7" x2="64.5" y2="61.7"/>
	<path class="st14" d="M35.8,33.7l2,2.4c-0.3,2.4-1.1,3.9-2,3.9c-1.2,0-2.2-2.8-2.2-6.3c0-3.5,1-6.3,2.2-6.3c0.6,0,1.1,0.6,1.5,1.8
		L35.8,33.7z"/>
	<path class="st14" d="M52.4,33.7l2,1.7c-0.3,2.7-1.1,4.6-2.1,4.6c-1.2,0-2.1-2.8-2.1-6.3c0-3.5,1-6.3,2.2-6.3c0.4,0,0.8,0.3,1.2,1
		L52.4,33.7z"/>
	<ellipse class="st1" cx="62.9" cy="44.8" rx="1.5" ry="2.2"/>
	
		<ellipse transform="matrix(0.9993 -3.856221e-02 3.856221e-02 0.9993 -1.7127 1.0014)" class="st1" cx="25.1" cy="44.9" rx="1.5" ry="2.1"/>
	<circle class="st15" cx="44.1" cy="43.2" r="26.2"/>
	<path class="st15" d="M63.1,44.9c-10.9,7.3-9.2,14.8-19,14.8s-8.2-7.4-19-14.8"/>
</g>
</svg>
